<svg width="25" height="25" viewBox="0 0 25 25" fill="none" xmlns="http://www.w3.org/2000/svg">
<path d="M11.7608 22.5002H3.83333C3.21449 22.5002 2.621 22.2543 2.18342 21.8167C1.74583 21.3792 1.5 20.7857 1.5 20.1668V6.16683C1.5 5.54799 1.74583 4.9545 2.18342 4.51691C2.621 4.07933 3.21449 3.8335 3.83333 3.8335H17.8333C18.4522 3.8335 19.0457 4.07933 19.4832 4.51691C19.9208 4.9545 20.1667 5.54799 20.1667 6.16683V10.8335" stroke="#FE6D14" stroke-width="2" stroke-linecap="round" stroke-linejoin="round"/>
<path d="M19 23.6668C21.5774 23.6668 23.6667 21.5775 23.6667 19.0002C23.6667 16.4228 21.5774 14.3335 19 14.3335C16.4227 14.3335 14.3334 16.4228 14.3334 19.0002C14.3334 21.5775 16.4227 23.6668 19 23.6668Z" stroke="#FE6D14" stroke-width="2" stroke-linecap="round" stroke-linejoin="round"/>
<path d="M15.5 1.5V6.16667" stroke="#FE6D14" stroke-width="2" stroke-linecap="round" stroke-linejoin="round"/>
<path d="M6.16663 1.5V6.16667" stroke="#FE6D14" stroke-width="2" stroke-linecap="round" stroke-linejoin="round"/>
<path d="M1.5 10.8335H20.1667" stroke="#FE6D14" stroke-width="2" stroke-linecap="round" stroke-linejoin="round"/>
<path d="M19 17.2451V18.9998L20.1667 20.1665" stroke="#FE6D14" stroke-width="2" stroke-linecap="round" stroke-linejoin="round"/>
</svg>
