<svg width="19" height="20" viewBox="0 0 19 20" fill="none" xmlns="http://www.w3.org/2000/svg">
<path d="M8.584 5.998C10.536 5.998 11.175 4.617 10.423 3.155C9.552 1.462 12.318 0 10.944 0C9.643 0 7.208 1.418 6.754 3.183C6.415 4.507 7.05 5.998 8.584 5.998ZM13.796 14.949L13.352 14.566C13.1085 14.363 12.8015 14.2519 12.4845 14.2519C12.1675 14.2519 11.8605 14.363 11.617 14.566L11.175 14.948C10.5698 15.4669 9.79825 15.7512 9.001 15.749C8.20421 15.7513 7.43308 15.4674 6.828 14.949L6.384 14.565C6.1406 14.3621 5.83371 14.251 5.51682 14.2512C5.19993 14.2514 4.89316 14.3628 4.65 14.566L4.206 14.949C3.013 15.977 1.239 16.005 0.00199997 15.049V18.962C0.00199997 19.2272 0.107357 19.4816 0.294893 19.6691C0.48243 19.8566 0.736784 19.962 1.002 19.962H17.002C17.2672 19.962 17.5216 19.8566 17.7091 19.6691C17.8966 19.4816 18.002 19.2272 18.002 18.962V15.05C16.765 16.004 14.991 15.979 13.796 14.949ZM9 6.962C1.426 6.962 0 10.323 0 11.962V12.431L1.164 13.434C1.40752 13.637 1.71449 13.7481 2.0315 13.7481C2.34851 13.7481 2.65548 13.637 2.899 13.434L3.343 13.051C3.94936 12.5352 4.71944 12.252 5.5155 12.252C6.31156 12.252 7.08164 12.5352 7.688 13.051L8.132 13.435C8.616 13.852 9.377 13.855 9.867 13.434L10.309 13.052C10.9152 12.5356 11.6855 12.2519 12.4818 12.2517C13.2782 12.2516 14.0485 12.5349 14.655 13.051L15.099 13.434C15.586 13.855 16.349 13.851 16.834 13.434L18 12.431V11.962C18 10.323 16.574 6.962 9 6.962Z" fill="#FE6D14"/>
</svg>
