<svg width="20" height="20" viewBox="0 0 20 20" fill="none" xmlns="http://www.w3.org/2000/svg">
<path d="M20 10.0016C20 10.0504 19.9988 10.0989 19.9981 10.1476C19.9657 11.5189 19.4563 13.079 17.3073 13.079C15.0817 13.079 14.6146 11.4055 14.6146 10.0016V6.15484C14.6146 5.95079 14.5335 5.75511 14.3892 5.61082C14.2449 5.46654 14.0493 5.38549 13.8452 5.38549C13.6412 5.38549 13.4455 5.46654 13.3012 5.61082C13.1569 5.75511 13.0759 5.95079 13.0759 6.15484V6.56461C12.3814 5.94228 11.5147 5.54491 10.5899 5.42484C9.66515 5.30476 8.72571 5.46762 7.89532 5.89196C7.06493 6.31629 6.38255 6.9822 5.93806 7.80198C5.49357 8.62175 5.30781 9.55694 5.40526 10.4844C5.50271 11.4118 5.87879 12.2879 6.48397 12.9974C7.08915 13.7069 7.89504 14.2164 8.7955 14.4589C9.69595 14.7013 10.6487 14.6654 11.5283 14.3557C12.4079 14.046 13.1731 13.4772 13.7231 12.7241C13.8191 12.8914 13.9277 13.0512 14.0479 13.2021C14.5642 13.8478 15.5486 14.6177 17.3073 14.6177C17.8905 14.6256 18.4703 14.5257 19.0173 14.3231C17.9542 16.5405 16.1113 18.2885 13.8408 19.233C11.5703 20.1775 9.03139 20.2523 6.70924 19.443C4.3871 18.6338 2.44455 16.9973 1.2528 14.8463C0.0610557 12.6952 -0.296321 10.1805 0.248964 7.7826C0.79425 5.38471 2.20396 3.27182 4.20871 1.84767C6.21346 0.423528 8.67268 -0.211998 11.1164 0.0625366C13.5601 0.337072 15.817 1.50242 17.4558 3.33588C19.0946 5.16935 20.0004 7.54237 20 10.0015V10.0016ZM6.92108 10.0016C6.92108 10.6102 7.10156 11.2052 7.43971 11.7113C7.77786 12.2174 8.25848 12.6118 8.8208 12.8447C9.38312 13.0776 10.0019 13.1386 10.5988 13.0198C11.1958 12.9011 11.7441 12.608 12.1745 12.1776C12.6049 11.7472 12.898 11.1989 13.0167 10.6019C13.1355 10.005 13.0745 9.38623 12.8416 8.82391C12.6087 8.26159 12.2143 7.78097 11.7082 7.44282C11.2021 7.10467 10.6071 6.92418 9.99847 6.92418C9.18258 6.92513 8.40038 7.24965 7.82347 7.82657C7.24655 8.40349 6.92202 9.18569 6.92108 10.0016Z" fill="#FE6D14"/>
</svg>
