<svg width="24" height="20" viewBox="0 0 24 20" fill="none" xmlns="http://www.w3.org/2000/svg">
<path d="M13.4 12.6C12.989 12.8814 12.4977 13.0218 12 13C11.5023 13.0218 11.011 12.8814 10.6 12.6L0 6.89999V17C0 18.6568 1.34315 20 3 20H21C22.6569 20 24 18.6568 24 17V6.89999L13.4 12.6Z" fill="#FE6D14"/>
<path d="M21 0H3.00001C1.34316 0 1.47999e-05 1.34315 1.47999e-05 3V4C-0.00192847 4.36673 0.187612 4.7079 0.500015 4.9L11.5 10.9C11.6536 10.9808 11.8272 11.0156 12 11C12.1728 11.0156 12.3465 10.9808 12.5 10.9L23.5 4.9C23.8124 4.7079 24.002 4.36673 24 4V3C24 1.34315 22.6569 0 21 0Z" fill="#FE6D14"/>
</svg>
