<svg width="16" height="20" viewBox="0 0 16 20" fill="none" xmlns="http://www.w3.org/2000/svg">
<path d="M4.05088 0.106456C4.598 -0.058503 5.18511 -0.0310978 5.71449 0.184109C6.24386 0.399317 6.68355 0.789342 6.96038 1.28926L7.05415 1.47556L7.88062 3.31478C8.13182 3.87303 8.21336 4.49281 8.1151 5.09704C8.01684 5.70126 7.74312 6.26327 7.32797 6.71316L7.16293 6.8782L5.8576 8.09476C5.62254 8.31732 5.79883 9.17879 6.6503 10.6517C7.41425 11.977 8.03816 12.5959 8.34324 12.6297H8.397L8.46327 12.6172L11.0264 11.8332C11.3709 11.7276 11.7385 11.7234 12.0853 11.8212C12.4321 11.919 12.7434 12.1146 12.9819 12.3846L13.097 12.5284L14.7924 14.879C15.1251 15.3396 15.291 15.8998 15.2628 16.4672C15.2346 17.0347 15.014 17.5757 14.6374 18.0011L14.4848 18.1586L13.8059 18.8013C13.1974 19.3776 12.4361 19.767 11.6127 19.9233C10.7893 20.0795 9.9383 19.996 9.16095 19.6827C6.74157 18.7075 4.54351 16.4794 2.54674 13.021C0.546228 9.55389 -0.285236 6.53186 0.0861092 3.94369C0.19859 3.16118 0.520942 2.42376 1.01892 1.80976C1.5169 1.19577 2.1719 0.728133 2.91434 0.456546L3.15565 0.376525L4.05088 0.106456Z" fill="#FE6D14"/>
</svg>
