<svg width="21" height="21" viewBox="0 0 21 21" fill="none" xmlns="http://www.w3.org/2000/svg">
<path d="M21 10.5C21 13.2848 19.8938 15.9555 17.9246 17.9246C15.9555 19.8938 13.2848 21 10.5 21C7.71523 21 5.04451 19.8938 3.07538 17.9246C1.10625 15.9555 0 13.2848 0 10.5C0 7.71523 1.10625 5.04451 3.07538 3.07538C5.04451 1.10625 7.71523 0 10.5 0C13.2848 0 15.9555 1.10625 17.9246 3.07538C19.8938 5.04451 21 7.71523 21 10.5ZM7.2135 7.91831H8.29631C8.47744 7.91831 8.62181 7.77 8.64544 7.59019C8.76356 6.72919 9.35419 6.10181 10.4068 6.10181C11.3072 6.10181 12.1314 6.552 12.1314 7.63481C12.1314 8.46825 11.6406 8.8515 10.8649 9.43425C9.98156 10.0761 9.282 10.8255 9.33187 12.0422L9.33581 12.327C9.33719 12.4131 9.37237 12.4952 9.43375 12.5556C9.49514 12.616 9.57782 12.6499 9.66394 12.6499H10.7284C10.8154 12.6499 10.8989 12.6153 10.9604 12.5538C11.0219 12.4922 11.0565 12.4088 11.0565 12.3217V12.1839C11.0565 11.2416 11.4148 10.9672 12.3821 10.2336C13.1814 9.62587 14.0149 8.95125 14.0149 7.53506C14.0149 5.55188 12.3401 4.59375 10.5066 4.59375C8.84363 4.59375 7.02188 5.36812 6.89719 7.59412C6.89539 7.63651 6.90228 7.67882 6.91744 7.71844C6.9326 7.75806 6.9557 7.79417 6.98533 7.82453C7.01496 7.8549 7.05048 7.87888 7.08972 7.89501C7.12896 7.91114 7.17108 7.91907 7.2135 7.91831ZM10.2651 16.3748C11.0657 16.3748 11.6156 15.8576 11.6156 15.1581C11.6156 14.4336 11.0644 13.9243 10.2651 13.9243C9.49856 13.9243 8.94075 14.4336 8.94075 15.1581C8.94075 15.8576 9.49856 16.3748 10.2664 16.3748H10.2651Z" fill="white"/>
</svg>
